<svg width="16" height="16" viewBox="0 0 16 16" fill="none" xmlns="http://www.w3.org/2000/svg">
<path fill-rule="evenodd" clip-rule="evenodd" d="M7.59581 6.87721C7.17828 6.87721 6.83942 7.21608 6.83942 7.63361C6.83942 8.05114 7.17828 8.39 7.59581 8.39C8.01334 8.39 8.3522 8.05114 8.3522 7.63361C8.3522 7.21608 8.01334 6.87721 7.59581 6.87721ZM10.6113 6.87726C10.1938 6.87726 9.85494 7.21612 9.85494 7.63365C9.85494 8.05118 10.1938 8.39005 10.6113 8.39005C11.0289 8.39005 11.3677 8.05118 11.3677 7.63365C11.3677 7.21612 11.0289 6.87726 10.6113 6.87726ZM3.82467 7.63365C3.82467 7.21612 4.16353 6.87726 4.58106 6.87726C4.99859 6.87726 5.33745 7.21612 5.33745 7.63365C5.33745 8.05118 4.99859 8.39005 4.58106 8.39005C4.16353 8.39005 3.82467 8.05118 3.82467 7.63365ZM13.5533 8.60791C13.171 11.0616 11.1932 13.0967 8.74328 13.5559C7.56019 13.7791 6.35524 13.6517 5.26188 13.1887C4.95197 13.0575 4.6315 12.9911 4.31707 12.9911C4.1738 12.9911 4.03204 13.0047 3.89254 13.0326L1.77218 13.4564L2.1967 11.3323C2.28568 10.8911 2.23139 10.4191 2.04062 9.96744C1.57764 8.87409 1.45096 7.66988 1.6734 6.48604C2.13261 4.03616 4.16701 2.05832 6.62141 1.67602C8.57438 1.37214 10.4844 1.98744 11.8627 3.36582C13.2419 4.74496 13.8579 6.6557 13.5533 8.60791ZM12.9288 2.29945C11.2058 0.577223 8.82308 -0.191144 6.38828 0.185122C3.31406 0.664691 0.765403 3.14096 0.19007 6.20764C-0.0874168 7.68405 0.0724398 9.18761 0.650789 10.5547C0.723931 10.7289 0.746552 10.891 0.717898 11.0365L0.0709317 14.2698C0.021165 14.5172 0.0988312 14.7728 0.277539 14.9507C0.420052 15.094 0.612333 15.1717 0.810645 15.1717C0.859658 15.1717 0.90867 15.1671 0.958437 15.1573L4.18799 14.5111C4.37349 14.4757 4.55295 14.5277 4.67284 14.5775C6.04142 15.1558 7.54498 15.3149 9.01988 15.0382C12.0873 14.4629 14.5636 11.9142 15.0432 8.84C15.4217 6.40671 14.6518 4.02243 12.9288 2.29945Z" fill="white"/>
</svg>
