<svg width="19" height="19" viewBox="0 0 19 19" fill="none" xmlns="http://www.w3.org/2000/svg">
<path d="M13.4174 13.0483C12.8273 13.6385 11.699 14.7667 10.7511 15.7147C9.86765 16.5981 8.4363 16.5982 7.55289 15.7147C6.62271 14.7846 5.51343 13.6753 4.88646 13.0483C2.53069 10.6925 2.53069 6.87308 4.88646 4.51731C7.24222 2.16155 11.0617 2.16155 13.4174 4.51731C15.7732 6.87308 15.7732 10.6925 13.4174 13.0483Z" stroke="white" stroke-width="1.13106" stroke-linecap="round" stroke-linejoin="round"/>
<path d="M11.4141 8.78281C11.4141 10.0321 10.4013 11.0449 9.15195 11.0449C7.90262 11.0449 6.88983 10.0321 6.88983 8.78281C6.88983 7.53348 7.90262 6.52069 9.15195 6.52069C10.4013 6.52069 11.4141 7.53348 11.4141 8.78281Z" stroke="white" stroke-width="1.13106" stroke-linecap="round" stroke-linejoin="round"/>
</svg>
