<svg width="92" height="101" viewBox="0 0 92 101" fill="none" xmlns="http://www.w3.org/2000/svg">
<g clip-path="url(#clip0_82_51387)">
<path d="M78.5462 13.525C78.3529 13.3094 78.1604 13.0994 77.967 12.8838C78.2547 12.7135 78.536 12.5385 78.8237 12.3682C77.4444 12.2395 75.4608 10.1654 74.2596 9.38075C72.818 8.4449 71.3575 7.53482 69.879 6.65609C68.054 5.56837 64.159 2.32863 61.857 3.13684C59.241 4.05657 59.4782 8.60607 59.1272 10.7623C58.7924 12.8018 58.4632 14.8405 58.1284 16.88C57.9469 17.9933 57.7655 19.1066 57.584 20.2199C57.5214 20.5895 57.4652 20.9637 57.4026 21.3332C56.8693 22.5354 57.1383 22.7964 58.2158 22.1209C58.7054 22.4791 59.1886 22.8325 59.6782 23.1907C59.6064 23.059 59.5281 22.9226 59.4563 22.791C59.3909 23.4008 59.3265 24.0162 59.2611 24.6261C58.9467 24.6977 58.6275 24.7757 58.3131 24.8474C59.546 25.2844 60.849 24.0371 60.2729 22.79C59.8254 21.8199 59.3131 21.4996 58.2599 21.3373C57.6282 21.2411 56.9287 21.5552 56.5701 22.0792C56.4815 22.2071 56.3975 22.3287 56.3088 22.4567C55.958 22.9566 55.798 23.7296 56.1137 24.2918C57.2919 26.365 59.8691 26.3366 60.6742 23.9786C61.3699 21.9459 61.3733 19.4266 61.7054 17.2962C62.0797 14.885 62.4475 12.4691 62.8218 10.058C62.987 8.98717 62.9937 7.74104 63.3318 6.71764C63.5739 6.06897 63.4451 5.97473 62.9415 6.44692C63.573 6.72593 64.1998 7.01139 64.822 7.30329C66.6931 8.17254 68.5517 9.07226 70.3886 10.0154C72.4487 11.0723 74.4776 12.1855 76.4846 13.3421C77.4001 13.8684 78.0564 14.4177 79.0724 13.9346C79.397 13.7814 79.5987 13.4246 79.5425 13.0621C79.4655 12.5657 79.2829 12.3827 78.8381 12.1661C78.5474 12.0227 78.2236 12.1814 78.0291 12.4001C77.9952 12.4396 77.9614 12.4791 77.9267 12.5131C77.577 12.91 78.0147 13.6703 78.5406 13.5259L78.5462 13.525Z" fill="white"/>
<path d="M61.5378 5.0777C64.3264 10.9792 65.4478 17.105 65.148 23.6055C65.069 25.3426 67.7414 25.6706 67.8465 23.918C68.2523 17.0699 66.5762 10.2762 63.1821 4.33723C62.6179 3.35097 61.0293 4.00856 61.5378 5.0777Z" fill="white"/>
<path d="M65.7188 31.919C65.3811 34.7871 64.8906 37.6275 64.1538 40.4261C63.5515 42.7299 62.4091 45.0489 62.245 47.416C62.1699 48.4785 63.6315 49.2114 64.2821 48.2138C65.6154 46.1679 65.9931 43.3736 66.4116 40.9898C66.9264 38.0486 67.1974 35.0823 67.2951 32.1029C67.3278 31.0983 65.8398 30.895 65.7188 31.919Z" fill="white"/>
<path d="M60.9221 54.5086C59.1774 60.6048 56.5432 66.0109 53.1121 71.3235C52.2139 72.7136 54.2484 74.2314 55.1994 72.8503C58.8665 67.5125 61.2314 61.2173 62.3239 54.8566C62.462 54.0527 61.1519 53.7076 60.9221 54.5086Z" fill="white"/>
<path d="M47.7174 78.0883C45.9813 79.1571 44.4914 80.599 42.9169 81.8998C41.7068 82.8985 39.562 85.3101 37.9316 85.146C37.1021 85.0633 36.3915 85.7847 36.5148 86.6166C36.5304 86.7169 36.5468 86.8229 36.5624 86.9233C36.6731 87.6372 37.2297 88.0592 37.8916 88.2021C39.9355 88.6391 41.699 86.3837 42.9869 85.1502C44.923 83.3079 47.1249 81.3386 48.4523 78.9967C48.7079 78.5458 48.295 77.7246 47.711 78.0836L47.7174 78.0883Z" fill="white"/>
<path d="M29.3526 92.3993C26.8931 93.2604 24.4281 94.1225 21.9704 94.9948C20.0325 95.6837 17.2158 97.3714 15.2083 97.2429C14.2513 97.1857 13.5815 97.9121 13.6637 98.8475C13.6763 98.9655 13.6825 99.0788 13.6951 99.1967C13.7569 99.9639 14.472 100.487 15.1656 100.614C17.2824 101.005 19.8115 99.1563 21.6341 98.3139C24.5015 96.9897 27.356 95.656 30.2161 94.3215C31.4624 93.7398 30.6149 91.9579 29.3526 92.3993Z" fill="white"/>
</g>
<defs>
<clipPath id="clip0_82_51387">
<rect width="78.2763" height="89.3893" fill="white" transform="translate(91.3242 88.9976) rotate(171.185)"/>
</clipPath>
</defs>
</svg>
