<svg width="115" height="110" viewBox="0 0 115 110" fill="none" xmlns="http://www.w3.org/2000/svg">
<g clip-path="url(#clip0_82_51394)">
<path d="M69.4666 102.853C69.7538 102.816 70.0359 102.776 70.323 102.738C70.3007 103.072 70.2858 103.403 70.2635 103.736C71.15 102.672 73.9824 102.209 75.309 101.663C76.8962 101.004 78.4729 100.314 80.0339 99.5922C81.9633 98.7026 86.8383 97.3236 87.4742 94.9682C88.1957 92.2907 84.31 89.9126 82.7306 88.4033C81.2382 86.9734 79.7434 85.5486 78.2511 84.1187C77.4357 83.3393 76.6203 82.5598 75.805 81.7804C75.5357 81.5197 75.2589 81.2616 74.9896 81.0009C74.3 79.8811 73.9326 79.9552 73.88 81.2259C73.3077 81.427 72.7429 81.6255 72.1706 81.8266C72.3198 81.8418 72.4765 81.8544 72.6257 81.8697C72.1598 81.4708 71.6888 81.0695 71.2229 80.6706C71.3417 80.3708 71.4579 80.0635 71.5768 79.7637C70.5189 80.5331 70.8102 82.3131 72.1645 82.5436C73.2176 82.7235 73.7716 82.4822 74.5012 81.7055C74.9379 81.239 75.0746 80.4845 74.8454 79.8925C74.79 79.747 74.7373 79.609 74.682 79.4635C74.4682 78.8914 73.9213 78.3221 73.2792 78.2644C70.903 78.063 69.4685 80.2042 70.9574 82.2022C72.2399 83.9257 74.3154 85.3538 75.8842 86.8329C77.6607 88.5056 79.4447 90.1756 81.2212 91.8483C82.0108 92.5903 83.0345 93.3008 83.6871 94.1586C84.085 94.7252 84.2356 94.6723 84.1312 93.9898C83.5438 94.3528 82.9538 94.7082 82.3612 95.056C80.5859 96.1071 78.7925 97.1308 76.9756 98.1119C74.9386 99.2127 72.8729 100.256 70.7837 101.257C69.8319 101.714 69.0076 101.944 68.8312 103.055C68.7738 103.41 68.954 103.778 69.2847 103.937C69.7376 104.154 69.9918 104.107 70.422 103.863C70.7047 103.704 70.757 103.347 70.6868 103.063C70.6733 103.013 70.6599 102.963 70.6515 102.915C70.5221 102.402 69.6475 102.333 69.469 102.848L69.4666 102.853Z" fill="white"/>
<path d="M86.0556 93.6056C79.6117 92.5664 73.926 90.0255 68.7354 86.1008C67.3477 85.0529 65.5654 87.071 66.951 88.1492C72.3684 92.358 78.9186 94.8192 85.736 95.3803C86.8684 95.4731 87.2249 93.7911 86.0556 93.6056Z" fill="white"/>
<path d="M61.56 81.8672C59.386 79.9662 57.3213 77.9549 55.4304 75.764C53.8715 73.9641 52.6056 71.7101 50.7465 70.2357C49.9128 69.5726 48.4816 70.3632 48.9362 71.4641C49.8689 73.7209 51.9594 75.6132 53.6883 77.3068C55.8224 79.3953 58.1151 81.2969 60.5166 83.063C61.3265 83.6583 62.3359 82.5463 61.56 81.8672Z" fill="white"/>
<path d="M45.6456 65.1336C41.6057 60.2462 38.6381 55.0157 36.1985 49.181C35.5603 47.6539 33.1578 48.4729 33.7587 50.0384C36.0856 56.082 39.9387 61.5934 44.5655 66.0927C45.1503 66.6614 46.176 65.7764 45.6456 65.1336Z" fill="white"/>
<path d="M33.6688 40.906C33.7696 38.8697 33.4235 36.8255 33.2416 34.7912C33.1027 33.2283 32.3275 30.0955 33.3851 28.8439C33.9226 28.2067 33.7298 27.2127 32.9741 26.8437C32.8825 26.7998 32.7858 26.7534 32.6942 26.7094C32.0429 26.3968 31.38 26.6171 30.8877 27.082C29.3711 28.5202 30.2332 31.2502 30.5217 33.0101C30.9457 35.6488 31.3238 38.5786 32.504 40.998C32.7311 41.4639 33.6419 41.588 33.6763 40.9033L33.6688 40.906Z" fill="white"/>
<path d="M32.2589 17.6669C32.9401 15.1517 33.6238 12.6314 34.2949 10.1112C34.8231 8.12356 35.025 4.84616 36.2666 3.26345C36.8552 2.5067 36.6351 1.54342 35.8173 1.08208C35.7129 1.02571 35.616 0.966694 35.5116 0.910323C34.844 0.527327 34.0081 0.821061 33.5114 1.32136C31.9911 2.84547 32.0847 5.97673 31.7482 7.95625C31.218 11.0698 30.7029 14.1781 30.1853 17.2915C29.9599 18.6483 31.9087 18.9575 32.2589 17.6669Z" fill="white"/>
</g>
<defs>
<clipPath id="clip0_82_51394">
<rect width="78.2763" height="89.3893" fill="white" transform="translate(0.00878906 70.6892) rotate(-64.3625)"/>
</clipPath>
</defs>
</svg>
