<svg width="1440" height="942" viewBox="0 0 1440 942" fill="none" xmlns="http://www.w3.org/2000/svg">
<g opacity="0.5" filter="url(#filter0_d_1_7)">
<path d="M331.355 293.229C223.775 311.339 28.6071 295.493 -55.5291 285.306L-63 837.392C-40.2316 842.296 22.0612 853.539 89.0856 859.274C172.866 866.442 425.275 865.31 528.8 837.392C632.325 809.473 778.541 795.136 969.048 788.345C1121.45 782.912 1370.52 828.588 1476 852.106V312.47C1413.21 318.507 1256.78 331.335 1133.41 334.353C979.187 338.126 985.59 317.375 745.455 275.12C505.32 232.864 465.831 270.592 331.355 293.229Z" fill="white" fill-opacity="0.05" shape-rendering="crispEdges"/>
</g>
<path d="M202.356 384.653C110.56 402.46 4.53687 403.642 -37 402.007V765.055C-20.5583 765.558 39.5317 770.185 148.358 784.672C284.391 802.781 496.749 805.799 602.668 797.876C708.587 789.954 865.388 765.809 1029.46 753.359C1160.72 743.4 1373.18 757.509 1463 765.809C1463 703.561 1455.73 430.905 1455.73 365.413C1337.87 342.023 1157.7 355.981 1085.53 365.413C1013.36 374.844 888.234 374.844 831.64 365.413C775.046 355.981 712.74 323.914 577.226 314.105C441.712 304.297 317.102 362.395 202.356 384.653Z" fill="black" fill-opacity="0.4"/>
<g opacity="0.5" filter="url(#filter1_f_1_7)">
<ellipse cx="394.323" cy="557.396" rx="242.421" ry="242.421" transform="rotate(-11.3401 394.323 557.396)" fill="url(#paint0_linear_1_7)"/>
</g>
<g opacity="0.5" filter="url(#filter2_f_1_7)">
<ellipse cx="1354.57" cy="424.105" rx="198.719" ry="198.719" transform="rotate(-11.3401 1354.57 424.105)" fill="url(#paint1_linear_1_7)"/>
</g>
<defs>
<filter id="filter0_d_1_7" x="-138.404" y="183.612" width="1689.81" height="757.808" filterUnits="userSpaceOnUse" color-interpolation-filters="sRGB">
<feFlood flood-opacity="0" result="BackgroundImageFix"/>
<feColorMatrix in="SourceAlpha" type="matrix" values="0 0 0 0 0 0 0 0 0 0 0 0 0 0 0 0 0 0 127 0" result="hardAlpha"/>
<feOffset dy="3.01616"/>
<feGaussianBlur stdDeviation="37.702"/>
<feComposite in2="hardAlpha" operator="out"/>
<feColorMatrix type="matrix" values="0 0 0 0 0 0 0 0 0 0 0 0 0 0 0 0 0 0 0.4 0"/>
<feBlend mode="normal" in2="BackgroundImageFix" result="effect1_dropShadow_1_7"/>
<feBlend mode="normal" in="SourceGraphic" in2="effect1_dropShadow_1_7" result="shape"/>
</filter>
<filter id="filter1_f_1_7" x="32.3879" y="195.461" width="723.871" height="723.872" filterUnits="userSpaceOnUse" color-interpolation-filters="sRGB">
<feFlood flood-opacity="0" result="BackgroundImageFix"/>
<feBlend mode="normal" in="SourceGraphic" in2="BackgroundImageFix" result="shape"/>
<feGaussianBlur stdDeviation="59.734" result="effect1_foregroundBlur_1_7"/>
</filter>
<filter id="filter2_f_1_7" x="930.817" y="0.348145" width="847.514" height="847.514" filterUnits="userSpaceOnUse" color-interpolation-filters="sRGB">
<feFlood flood-opacity="0" result="BackgroundImageFix"/>
<feBlend mode="normal" in="SourceGraphic" in2="BackgroundImageFix" result="shape"/>
<feGaussianBlur stdDeviation="112.5" result="effect1_foregroundBlur_1_7"/>
</filter>
<linearGradient id="paint0_linear_1_7" x1="151.903" y1="626.84" x2="504.18" y2="625.476" gradientUnits="userSpaceOnUse">
<stop stop-color="#9D70AF"/>
<stop offset="1" stop-color="#F188B7"/>
</linearGradient>
<linearGradient id="paint1_linear_1_7" x1="1155.86" y1="481.03" x2="1444.63" y2="479.912" gradientUnits="userSpaceOnUse">
<stop stop-color="#9D70AF"/>
<stop offset="1" stop-color="#F188B7"/>
</linearGradient>
</defs>
</svg>

