<svg width="390" height="932" viewBox="0 0 390 932" fill="none" xmlns="http://www.w3.org/2000/svg">
<g opacity="0.5" filter="url(#filter0_d_1_7)">
<path d="M90.8267 69.4398C61.9568 81.3281 9.58236 70.9258 -12.9961 64.2386L-15.001 866.189C-8.89094 869.409 7.82573 876.789 25.8121 880.554C48.2951 885.26 116.031 884.517 143.812 866.189C171.594 847.861 210.832 838.449 261.955 833.991C302.854 830.425 369.692 860.41 397.999 875.848V82.0711C381.149 86.0339 339.171 94.4549 306.062 96.4363C264.676 98.913 266.395 85.2909 201.953 57.5514C137.511 29.8119 126.914 54.5793 90.8267 69.4398Z" fill="white" fill-opacity="0.05" shape-rendering="crispEdges"/>
</g>
<path d="M53.0613 166.104C27.7255 177.81 -1.5368 178.587 -13.001 177.512V819.713C-8.46307 820.043 8.12176 823.086 38.1579 832.609C75.7031 844.513 134.314 846.497 163.547 841.289C192.781 836.081 236.058 820.209 281.342 812.024C317.568 805.477 376.208 814.753 400.999 820.209C400.999 779.288 398.993 196.509 398.993 153.455C366.463 138.079 316.737 147.255 296.818 153.455C276.899 159.656 242.364 159.656 226.744 153.455C211.124 147.255 193.927 126.175 156.525 119.727C119.124 113.278 84.7311 151.471 53.0613 166.104Z" fill="black" fill-opacity="0.4"/>
<g opacity="0.5" filter="url(#filter1_f_1_7)">
<ellipse cx="142.328" cy="295.664" rx="150.459" ry="150.459" transform="rotate(-11.3401 142.328 295.664)" fill="url(#paint0_linear_1_7)"/>
</g>
<defs>
<filter id="filter0_d_1_7" x="-61.8007" y="0.0722609" width="506.599" height="931.599" filterUnits="userSpaceOnUse" color-interpolation-filters="sRGB">
<feFlood flood-opacity="0" result="BackgroundImageFix"/>
<feColorMatrix in="SourceAlpha" type="matrix" values="0 0 0 0 0 0 0 0 0 0 0 0 0 0 0 0 0 0 127 0" result="hardAlpha"/>
<feOffset dy="1.87199"/>
<feGaussianBlur stdDeviation="23.3999"/>
<feComposite in2="hardAlpha" operator="out"/>
<feColorMatrix type="matrix" values="0 0 0 0 0 0 0 0 0 0 0 0 0 0 0 0 0 0 0.4 0"/>
<feBlend mode="normal" in2="BackgroundImageFix" result="effect1_dropShadow_1_7"/>
<feBlend mode="normal" in="SourceGraphic" in2="effect1_dropShadow_1_7" result="shape"/>
</filter>
<filter id="filter1_f_1_7" x="-82.3093" y="71.0276" width="449.273" height="449.272" filterUnits="userSpaceOnUse" color-interpolation-filters="sRGB">
<feFlood flood-opacity="0" result="BackgroundImageFix"/>
<feBlend mode="normal" in="SourceGraphic" in2="BackgroundImageFix" result="shape"/>
<feGaussianBlur stdDeviation="37.0741" result="effect1_foregroundBlur_1_7"/>
</filter>
<linearGradient id="paint0_linear_1_7" x1="-8.13159" y1="338.764" x2="210.51" y2="337.918" gradientUnits="userSpaceOnUse">
<stop stop-color="#9D70AF"/>
<stop offset="1" stop-color="#F188B7"/>
</linearGradient>
</defs>
</svg>
