<svg width="15" height="16" viewBox="0 0 15 16" fill="none" xmlns="http://www.w3.org/2000/svg">
<path d="M0.812012 2.47018C0.812012 1.63729 1.4872 0.962097 2.32009 0.962097H4.79277C5.11733 0.962097 5.40548 1.16978 5.50812 1.47769L6.63753 4.86592C6.75619 5.22192 6.59503 5.61099 6.2594 5.77881L4.55733 6.62984C5.38847 8.47326 6.87358 9.95836 8.717 10.7895L9.56803 9.08743C9.73585 8.7518 10.1249 8.59064 10.4809 8.70931L13.8691 9.83872C14.1771 9.94135 14.3847 10.2295 14.3847 10.5541V13.0267C14.3847 13.8596 13.7095 14.5348 12.8767 14.5348H12.1226C5.87594 14.5348 0.812012 9.47089 0.812012 3.22422V2.47018Z" stroke="white" stroke-width="1.13106" stroke-linecap="round" stroke-linejoin="round"/>
</svg>
