<svg xmlns="http://www.w3.org/2000/svg" viewBox="0 0 512 512"><path d="M503.2,423.7H8.8A8.8,8.8,0,0,1,0,414.9V97.1a8.8,8.8,0,0,1,8.8-8.8H503.2a8.8,8.8,0,0,1,8.8,8.8V414.9A8.8,8.8,0,0,1,503.2,423.7Z" fill="#f5f5f5"/><path d="M512,114.1H0v-17a8.8,8.8,0,0,1,8.8-8.8H503.2a8.8,8.8,0,0,1,8.8,8.8v17Z" fill="#ff4b55"/><rect y="191.5" width="512" height="25.8" fill="#ff4b55"/><rect y="139.9" width="512" height="25.8" fill="#ff4b55"/><path d="M512,268.9H8.8A8.8,8.8,0,0,1,0,260.1v-17H512Z" fill="#ff4b55"/><rect y="346.3" width="512" height="25.8" fill="#ff4b55"/><path d="M503.2,423.7H8.8A8.8,8.8,0,0,1,0,414.9v-17H512v17A8.8,8.8,0,0,1,503.2,423.7Z" fill="#ff4b55"/><rect y="294.7" width="512" height="25.8" fill="#ff4b55"/><path d="M229.5,88.3H8.8A8.8,8.8,0,0,0,0,97.1v163a8.9,8.9,0,0,0,8.8,8.8H229.5a8.8,8.8,0,0,0,8.8-8.8V97.1A8.7,8.7,0,0,0,229.5,88.3Z" fill="#41479b"/><path d="M24.8,108.5l1.9,5.9h6.2c.8.1,1.2,1.1.5,1.5l-5,3.7,1.9,5.9a.8.8,0,0,1-1.3.9l-5-3.6-5,3.6a.8.8,0,0,1-1.3-.9l1.9-5.9-5-3.7c-.7-.4-.3-1.4.5-1.5h6.2l1.9-5.9A.9.9,0,0,1,24.8,108.5Z" fill="#f5f5f5"/><path d="M24.8,139.2l1.9,5.9h6.2a.8.8,0,0,1,.5,1.5l-5,3.7,1.9,5.9a.8.8,0,0,1-1.3.9l-5-3.6-5,3.6a.8.8,0,0,1-1.3-.9l1.9-5.9-5-3.7a.8.8,0,0,1,.5-1.5h6.2l1.9-5.9A.8.8,0,0,1,24.8,139.2Z" fill="#f5f5f5"/><path d="M24.8,169.8l1.9,5.9h6.2a.8.8,0,0,1,.5,1.5l-5,3.6,1.9,5.9a.8.8,0,0,1-1.3.9l-5-3.5-5,3.5a.8.8,0,0,1-1.3-.9l1.9-5.9-5-3.6a.8.8,0,0,1,.5-1.5h6.2l1.9-5.9A.9.9,0,0,1,24.8,169.8Z" fill="#f5f5f5"/><path d="M24.8,200.5l1.9,5.9h6.2a.8.8,0,0,1,.5,1.5l-5,3.7,1.9,5.9a.8.8,0,0,1-1.3.9l-5-3.6-5,3.6a.8.8,0,0,1-1.3-.9l1.9-5.9-5-3.7a.8.8,0,0,1,.5-1.5h6.2l1.9-5.9A.8.8,0,0,1,24.8,200.5Z" fill="#f5f5f5"/><path d="M24.8,231.2l1.9,5.8h6.2a.8.8,0,0,1,.5,1.5l-5,3.6,1.9,5.9a.9.9,0,0,1-1.3,1l-5-3.6-5,3.6a.9.9,0,0,1-1.3-1l1.9-5.9-5-3.6a.8.8,0,0,1,.5-1.5h6.2l1.9-5.8A.8.8,0,0,1,24.8,231.2Z" fill="#f5f5f5"/><path d="M48.6,123.6l1.9,5.8h6.2a.8.8,0,0,1,.5,1.5l-5,3.6,1.9,5.9a.9.9,0,0,1-1.3,1l-5-3.6-5,3.6a.9.9,0,0,1-1.3-1l1.9-5.9-5-3.6a.8.8,0,0,1,.5-1.5H45l2-5.8A.8.8,0,0,1,48.6,123.6Z" fill="#f5f5f5"/><path d="M48.6,154.2l1.9,5.9h6.2a.8.8,0,0,1,.5,1.5l-5,3.7,1.9,5.9a.8.8,0,0,1-1.3.9l-5-3.6-5,3.6a.8.8,0,0,1-1.3-.9l1.9-5.9-5-3.7a.8.8,0,0,1,.5-1.5H45l2-5.9A.9.9,0,0,1,48.6,154.2Z" fill="#f5f5f5"/><path d="M48.6,184.9l1.9,5.8h6.2a.8.8,0,0,1,.5,1.5l-5,3.7,1.9,5.8a.9.9,0,0,1-1.3,1l-5-3.6-5,3.6a.9.9,0,0,1-1.3-1l1.9-5.8-5-3.7a.8.8,0,0,1,.5-1.5H45l2-5.8A.8.8,0,0,1,48.6,184.9Z" fill="#f5f5f5"/><path d="M48.6,215.5l1.9,5.9h6.2a.8.8,0,0,1,.5,1.5l-5,3.7,1.9,5.9a.8.8,0,0,1-1.3.9l-5-3.6-5,3.6a.8.8,0,0,1-1.3-.9l1.9-5.9-5-3.7a.8.8,0,0,1,.5-1.5H45l2-5.9A.9.9,0,0,1,48.6,215.5Z" fill="#f5f5f5"/><path d="M72.4,108.5l1.9,5.9h6.2a.9.9,0,0,1,.5,1.5l-5,3.7,1.9,5.9a.8.8,0,0,1-1.3.9l-5-3.6-5,3.6a.8.8,0,0,1-1.3-.9l1.8-5.9-4.9-3.7c-.7-.4-.3-1.4.5-1.5h6.1l2-5.9A.9.9,0,0,1,72.4,108.5Z" fill="#f5f5f5"/><path d="M72.4,139.2l1.9,5.9h6.2a.8.8,0,0,1,.5,1.5l-5,3.7,1.9,5.9a.8.8,0,0,1-1.3.9l-5-3.6-5,3.6a.8.8,0,0,1-1.3-.9l1.8-5.9-4.9-3.7a.8.8,0,0,1,.5-1.5h6.1l2-5.9A.8.8,0,0,1,72.4,139.2Z" fill="#f5f5f5"/><path d="M72.4,169.8l1.9,5.9h6.2a.8.8,0,0,1,.5,1.5l-5,3.6,1.9,5.9a.8.8,0,0,1-1.3.9l-5-3.6-5,3.6a.8.8,0,0,1-1.3-.9l1.8-5.9-4.9-3.6a.8.8,0,0,1,.5-1.5h6.1l2-5.9A.9.9,0,0,1,72.4,169.8Z" fill="#f5f5f5"/><path d="M72.4,200.5l1.9,5.9h6.2a.8.8,0,0,1,.5,1.5l-5,3.7,1.9,5.9a.8.8,0,0,1-1.3.9l-5-3.6-5,3.6a.8.8,0,0,1-1.3-.9l1.8-5.9-4.9-3.7a.8.8,0,0,1,.5-1.5h6.1l2-5.9A.8.8,0,0,1,72.4,200.5Z" fill="#f5f5f5"/><path d="M72.4,231.2l1.9,5.8h6.2a.8.8,0,0,1,.5,1.5l-5,3.6,1.9,5.9a.9.9,0,0,1-1.3,1l-5-3.6-5,3.6a.9.9,0,0,1-1.3-1l1.8-5.9-4.9-3.6a.8.8,0,0,1,.5-1.5h6.1l2-5.8A.8.8,0,0,1,72.4,231.2Z" fill="#f5f5f5"/><path d="M96.2,123.6l1.9,5.8h6.2a.8.8,0,0,1,.5,1.5l-5,3.6,1.9,5.9a.9.9,0,0,1-1.3,1l-5-3.6-5,3.6a.9.9,0,0,1-1.3-1l1.8-5.9L86,131a.8.8,0,0,1,.5-1.5h6.1l2-5.8A.8.8,0,0,1,96.2,123.6Z" fill="#f5f5f5"/><path d="M96.2,154.2l1.9,5.9h6.2a.8.8,0,0,1,.5,1.5l-5,3.7,1.9,5.9a.8.8,0,0,1-1.3.9l-5-3.6-5,3.6a.8.8,0,0,1-1.3-.9l1.8-5.9L86,161.6a.8.8,0,0,1,.5-1.5h6.1l2-5.9A.9.9,0,0,1,96.2,154.2Z" fill="#f5f5f5"/><path d="M96.2,184.9l1.9,5.8h6.2a.8.8,0,0,1,.5,1.5l-5,3.7,1.9,5.8a.9.9,0,0,1-1.3,1l-5-3.6-5,3.6a.9.9,0,0,1-1.3-1l1.8-5.8L86,192.3a.8.8,0,0,1,.5-1.5h6.1l2-5.8A.8.8,0,0,1,96.2,184.9Z" fill="#f5f5f5"/><path d="M96.2,215.5l1.9,5.9h6.2a.8.8,0,0,1,.5,1.5l-5,3.7,1.9,5.9a.8.8,0,0,1-1.3.9l-5-3.6-5,3.6a.8.8,0,0,1-1.3-.9l1.8-5.9L86,222.9a.8.8,0,0,1,.5-1.5h6.1l2-5.9A.9.9,0,0,1,96.2,215.5Z" fill="#f5f5f5"/><path d="M120,108.5l1.9,5.9h6.2a.9.9,0,0,1,.5,1.5l-5,3.7,1.9,5.9a.8.8,0,0,1-1.3.9l-5-3.6-5.1,3.6a.8.8,0,0,1-1.2-.9l1.8-5.9-4.9-3.7c-.7-.4-.3-1.4.5-1.5h6.1l2-5.9A.9.9,0,0,1,120,108.5Z" fill="#f5f5f5"/><path d="M120,139.2l1.9,5.9h6.2a.8.8,0,0,1,.5,1.5l-5,3.7,1.9,5.9a.8.8,0,0,1-1.3.9l-5-3.6-5.1,3.6a.8.8,0,0,1-1.2-.9l1.8-5.9-4.9-3.7a.8.8,0,0,1,.5-1.5h6.1l2-5.9A.8.8,0,0,1,120,139.2Z" fill="#f5f5f5"/><path d="M120,169.8l1.9,5.9h6.2a.8.8,0,0,1,.5,1.5l-5,3.6,1.9,5.9a.8.8,0,0,1-1.3.9l-5-3.6-5.1,3.6a.8.8,0,0,1-1.2-.9l1.8-5.9-4.9-3.6a.8.8,0,0,1,.5-1.5h6.1l2-5.9A.9.9,0,0,1,120,169.8Z" fill="#f5f5f5"/><path d="M120,200.5l1.9,5.9h6.2a.8.8,0,0,1,.5,1.5l-5,3.7,1.9,5.9a.8.8,0,0,1-1.3.9l-5-3.6-5.1,3.6a.8.8,0,0,1-1.2-.9l1.8-5.9-4.9-3.7a.8.8,0,0,1,.5-1.5h6.1l2-5.9A.8.8,0,0,1,120,200.5Z" fill="#f5f5f5"/><path d="M120,231.2l1.9,5.8h6.2a.8.8,0,0,1,.5,1.5l-5,3.6,1.9,5.9a.9.9,0,0,1-1.3,1l-5-3.6-5.1,3.6a.8.8,0,0,1-1.2-1l1.8-5.9-4.9-3.6a.8.8,0,0,1,.5-1.5h6.1l2-5.8A.8.8,0,0,1,120,231.2Z" fill="#f5f5f5"/><path d="M143.8,123.6l1.9,5.8h6.2a.8.8,0,0,1,.5,1.5l-5,3.6,1.9,5.9a.9.9,0,0,1-1.3,1l-5-3.6-5.1,3.6a.8.8,0,0,1-1.2-1l1.8-5.9-4.9-3.6a.8.8,0,0,1,.4-1.5h6.2l2-5.8A.8.8,0,0,1,143.8,123.6Z" fill="#f5f5f5"/><path d="M143.8,154.2l1.9,5.9h6.2a.8.8,0,0,1,.5,1.5l-5,3.7,1.9,5.9a.8.8,0,0,1-1.3.9l-5-3.6-5.1,3.6a.8.8,0,0,1-1.2-.9l1.8-5.9-4.9-3.7a.8.8,0,0,1,.4-1.5h6.2l2-5.9A.9.9,0,0,1,143.8,154.2Z" fill="#f5f5f5"/><path d="M143.8,184.9l1.9,5.8h6.2a.8.8,0,0,1,.5,1.5l-5,3.7,1.9,5.8a.9.9,0,0,1-1.3,1l-5-3.6-5.1,3.6a.8.8,0,0,1-1.2-1l1.8-5.8-4.9-3.7a.8.8,0,0,1,.4-1.5h6.2l2-5.8A.8.8,0,0,1,143.8,184.9Z" fill="#f5f5f5"/><path d="M143.8,215.5l1.9,5.9h6.2a.8.8,0,0,1,.5,1.5l-5,3.7,1.9,5.9a.8.8,0,0,1-1.3.9l-5-3.6-5.1,3.6a.8.8,0,0,1-1.2-.9l1.8-5.9-4.9-3.7a.8.8,0,0,1,.4-1.5h6.2l2-5.9A.9.9,0,0,1,143.8,215.5Z" fill="#f5f5f5"/><path d="M167.5,108.5l2,5.9h6.2a.9.9,0,0,1,.5,1.5l-5,3.7,1.9,5.9a.8.8,0,0,1-1.3.9l-5-3.6-5.1,3.6a.8.8,0,0,1-1.2-.9l1.8-5.9-4.9-3.7a.8.8,0,0,1,.4-1.5H164l2-5.9A.8.8,0,0,1,167.5,108.5Z" fill="#f5f5f5"/><path d="M167.5,139.2l2,5.9h6.2a.8.8,0,0,1,.5,1.5l-5,3.7,1.9,5.9a.8.8,0,0,1-1.3.9l-5-3.6-5.1,3.6a.8.8,0,0,1-1.2-.9l1.8-5.9-4.9-3.7a.8.8,0,0,1,.4-1.5H164l2-5.9A.8.8,0,0,1,167.5,139.2Z" fill="#f5f5f5"/><path d="M167.5,169.8l2,5.9h6.2a.8.8,0,0,1,.5,1.5l-5,3.6,1.9,5.9a.8.8,0,0,1-1.3.9l-5-3.6-5.1,3.6a.8.8,0,0,1-1.2-.9l1.8-5.9-4.9-3.6a.8.8,0,0,1,.4-1.5H164l2-5.9A.8.8,0,0,1,167.5,169.8Z" fill="#f5f5f5"/><path d="M167.5,200.5l2,5.9h6.2a.8.8,0,0,1,.5,1.5l-5,3.7,1.9,5.9a.8.8,0,0,1-1.3.9l-5-3.6-5.1,3.6a.8.8,0,0,1-1.2-.9l1.8-5.9-4.9-3.7a.8.8,0,0,1,.4-1.5H164l2-5.9A.8.8,0,0,1,167.5,200.5Z" fill="#f5f5f5"/><path d="M167.5,231.2l2,5.8h6.2a.8.8,0,0,1,.5,1.5l-5,3.6,1.9,5.9a.9.9,0,0,1-1.3,1l-5-3.6-5.1,3.6a.8.8,0,0,1-1.2-1l1.8-5.9-4.9-3.6a.8.8,0,0,1,.4-1.5H164l2-5.8A.8.8,0,0,1,167.5,231.2Z" fill="#f5f5f5"/><path d="M191.3,123.6l2,5.8h6.2a.8.8,0,0,1,.5,1.5l-5,3.6,1.9,5.9a.9.9,0,0,1-1.3,1l-5-3.6-5.1,3.6a.8.8,0,0,1-1.2-1l1.8-5.9-5-3.6a.8.8,0,0,1,.5-1.5h6.2l2-5.8A.8.8,0,0,1,191.3,123.6Z" fill="#f5f5f5"/><path d="M191.3,154.2l2,5.9h6.2a.8.8,0,0,1,.5,1.5l-5,3.7,1.9,5.9a.8.8,0,0,1-1.3.9l-5-3.6-5.1,3.6a.8.8,0,0,1-1.2-.9l1.8-5.9-5-3.7a.8.8,0,0,1,.5-1.5h6.2l2-5.9A.8.8,0,0,1,191.3,154.2Z" fill="#f5f5f5"/><path d="M191.3,184.9l2,5.8h6.2a.8.8,0,0,1,.5,1.5l-5,3.7,1.9,5.8a.9.9,0,0,1-1.3,1l-5-3.6-5.1,3.6a.8.8,0,0,1-1.2-1l1.8-5.8-5-3.7a.8.8,0,0,1,.5-1.5h6.2l2-5.8A.8.8,0,0,1,191.3,184.9Z" fill="#f5f5f5"/><path d="M191.3,215.5l2,5.9h6.2a.8.8,0,0,1,.5,1.5l-5,3.7,1.9,5.9a.8.8,0,0,1-1.3.9l-5-3.6-5.1,3.6a.8.8,0,0,1-1.2-.9l1.8-5.9-5-3.7a.8.8,0,0,1,.5-1.5h6.2l2-5.9A.8.8,0,0,1,191.3,215.5Z" fill="#f5f5f5"/><path d="M215.1,108.5l2,5.9h6.2a.9.9,0,0,1,.5,1.5l-5,3.7,1.9,5.9a.8.8,0,0,1-1.3.9l-5.1-3.6-5,3.6a.8.8,0,0,1-1.3-.9l1.9-5.9-5-3.7a.9.9,0,0,1,.5-1.5h6.2l2-5.9A.8.8,0,0,1,215.1,108.5Z" fill="#f5f5f5"/><path d="M215.1,139.2l2,5.9h6.2a.8.8,0,0,1,.5,1.5l-5,3.7,1.9,5.9a.8.8,0,0,1-1.3.9l-5.1-3.6-5,3.6a.8.8,0,0,1-1.3-.9l1.9-5.9-5-3.7a.8.8,0,0,1,.5-1.5h6.2l2-5.9A.8.8,0,0,1,215.1,139.2Z" fill="#f5f5f5"/><path d="M215.1,169.8l2,5.9h6.2a.8.8,0,0,1,.5,1.5l-5,3.6,1.9,5.9a.8.8,0,0,1-1.3.9l-5.1-3.6-5,3.6a.8.8,0,0,1-1.3-.9l1.9-5.9-5-3.6a.8.8,0,0,1,.5-1.5h6.2l2-5.9A.8.8,0,0,1,215.1,169.8Z" fill="#f5f5f5"/><path d="M215.1,200.5l2,5.9h6.2a.8.8,0,0,1,.5,1.5l-5,3.7,1.9,5.9a.8.8,0,0,1-1.3.9l-5.1-3.6-5,3.6a.8.8,0,0,1-1.3-.9l1.9-5.9-5-3.7a.8.8,0,0,1,.5-1.5h6.2l2-5.9A.8.8,0,0,1,215.1,200.5Z" fill="#f5f5f5"/><path d="M215.1,231.2l2,5.8h6.2a.8.8,0,0,1,.5,1.5l-5,3.6,1.9,5.9a.9.9,0,0,1-1.3,1l-5.1-3.6-5,3.6a.9.9,0,0,1-1.3-1l1.9-5.9-5-3.6a.8.8,0,0,1,.5-1.5h6.2l2-5.8A.8.8,0,0,1,215.1,231.2Z" fill="#f5f5f5"/></svg>